<?xml version="1.0" standalone="no"?>
<!DOCTYPE svg PUBLIC "-//W3C//DTD SVG 20010904//EN"
 "http://www.w3.org/TR/2001/REC-SVG-20010904/DTD/svg10.dtd">
<svg version="1.0" xmlns="http://www.w3.org/2000/svg"
 width="3264.000000pt" height="3264.000000pt" viewBox="0 0 3264.000000 3264.000000"
 preserveAspectRatio="xMidYMid meet">

<g transform="translate(0.000000,3264.000000) scale(0.100000,-0.100000)"
fill="#000000" stroke="none">
<path d="M0 16320 l0 -16320 16320 0 16320 0 0 6218 c-1 5382 -3 6214 -15
6198 -8 -10 -19 -44 -25 -75 -7 -31 -18 -76 -26 -101 -67 -209 -108 -331 -124
-365 -10 -22 -30 -69 -45 -105 -25 -59 -113 -243 -135 -280 -5 -8 -11 -22 -14
-30 -19 -49 -152 -256 -244 -379 -147 -199 -368 -433 -533 -563 -46 -36 -109
-86 -139 -110 -55 -44 -190 -137 -278 -192 -79 -49 -245 -157 -274 -177 -15
-10 -30 -19 -34 -19 -4 0 -43 -24 -88 -53 -45 -29 -89 -56 -99 -60 -17 -6
-134 -79 -189 -118 -15 -10 -29 -19 -32 -19 -2 0 -40 -24 -83 -52 -88 -60
-106 -70 -148 -92 -16 -9 -42 -24 -57 -33 -14 -10 -48 -31 -75 -47 -26 -16
-84 -53 -129 -82 -44 -30 -83 -54 -87 -54 -4 0 -30 -16 -57 -35 -27 -19 -52
-35 -55 -35 -3 0 -28 -16 -55 -35 -27 -19 -54 -35 -58 -35 -5 0 -31 -16 -58
-35 -27 -19 -53 -35 -57 -35 -5 0 -18 -7 -30 -15 -89 -61 -192 -125 -202 -125
-7 0 -18 -7 -25 -15 -6 -8 -33 -26 -58 -41 -26 -15 -49 -30 -52 -33 -3 -4 -16
-12 -30 -19 -30 -15 -50 -27 -110 -67 -25 -16 -53 -34 -62 -40 -10 -5 -58 -35
-108 -65 -50 -30 -103 -62 -118 -70 -16 -9 -55 -34 -88 -56 -33 -23 -73 -49
-89 -58 -17 -9 -42 -24 -57 -34 -14 -9 -52 -33 -84 -52 -32 -19 -72 -44 -90
-55 -18 -11 -71 -42 -116 -70 -46 -27 -89 -55 -96 -62 -7 -7 -17 -13 -22 -13
-9 0 -44 -22 -163 -101 -32 -22 -60 -39 -64 -39 -8 0 -94 -53 -293 -182 -47
-31 -107 -67 -135 -82 -27 -15 -81 -46 -120 -71 -80 -50 -161 -101 -211 -130
-179 -106 -326 -198 -369 -230 -10 -8 -23 -15 -27 -15 -4 0 -27 -13 -50 -29
-86 -57 -163 -106 -188 -118 -14 -7 -34 -18 -45 -25 -11 -7 -47 -30 -80 -50
-33 -21 -67 -43 -75 -48 -78 -53 -134 -87 -184 -113 -32 -16 -67 -38 -76 -47
-10 -10 -29 -24 -44 -31 -75 -40 -206 -123 -206 -130 0 -5 -5 -9 -10 -9 -6 0
-58 -28 -116 -62 -57 -35 -120 -72 -138 -83 -19 -11 -71 -42 -116 -70 -113
-69 -150 -91 -185 -110 -16 -8 -57 -33 -90 -55 -33 -22 -69 -45 -80 -50 -11
-6 -36 -20 -55 -33 -35 -21 -117 -72 -186 -112 -18 -11 -41 -27 -51 -35 -10
-8 -29 -21 -43 -28 -14 -7 -41 -23 -61 -35 -20 -12 -71 -44 -115 -70 -43 -26
-106 -66 -139 -88 -33 -21 -73 -46 -90 -55 -63 -33 -92 -51 -161 -97 -38 -26
-73 -47 -76 -47 -4 0 -37 -21 -75 -46 -37 -25 -96 -62 -131 -82 -35 -21 -86
-52 -115 -69 -29 -18 -66 -39 -84 -48 -17 -8 -33 -18 -35 -22 -1 -5 -15 -15
-29 -23 -32 -18 -132 -79 -164 -100 -25 -16 -118 -74 -171 -105 -124 -74 -202
-123 -320 -201 -44 -30 -85 -54 -90 -54 -5 0 -42 -22 -82 -50 -40 -27 -75 -50
-79 -50 -4 0 -43 -25 -88 -55 -45 -30 -85 -55 -88 -55 -3 0 -29 -16 -58 -35
-30 -19 -57 -35 -62 -35 -7 0 -120 -69 -142 -87 -5 -5 -46 -30 -90 -57 -44
-26 -118 -72 -165 -101 -47 -30 -112 -70 -145 -90 -33 -20 -87 -53 -120 -75
-33 -21 -109 -69 -170 -105 -252 -152 -356 -217 -470 -295 -22 -15 -67 -41
-100 -59 -56 -29 -268 -159 -290 -178 -5 -5 -17 -12 -25 -16 -8 -3 -46 -27
-85 -52 -38 -25 -80 -49 -93 -55 -12 -5 -28 -14 -35 -20 -20 -16 -106 -72
-195 -125 -46 -28 -94 -57 -107 -65 -90 -59 -212 -136 -280 -176 -44 -26 -84
-54 -88 -61 -4 -7 -14 -13 -21 -13 -6 0 -28 -12 -47 -26 -19 -14 -56 -36 -84
-50 -48 -24 -74 -40 -213 -132 -34 -23 -65 -42 -68 -42 -3 0 -26 -15 -52 -32
-56 -39 -77 -52 -117 -73 -16 -9 -68 -40 -115 -69 -47 -30 -121 -76 -165 -102
-44 -26 -101 -62 -126 -80 -25 -18 -65 -43 -88 -56 -64 -35 -93 -52 -126 -73
-134 -85 -206 -132 -243 -156 -23 -16 -46 -29 -50 -29 -4 -1 -52 -30 -107 -66
-55 -35 -109 -68 -120 -73 -20 -9 -120 -73 -142 -91 -7 -6 -23 -15 -35 -20
-13 -6 -50 -28 -83 -50 -33 -22 -87 -55 -120 -75 -33 -20 -87 -54 -120 -75
-33 -22 -67 -43 -75 -47 -8 -3 -35 -22 -59 -40 -24 -18 -48 -33 -53 -33 -4 0
-30 -15 -56 -33 -26 -18 -54 -36 -62 -40 -8 -4 -46 -27 -85 -51 -68 -44 -192
-120 -261 -161 -63 -38 -189 -116 -249 -155 -33 -22 -74 -48 -92 -57 -65 -36
-198 -117 -203 -124 -3 -3 -42 -28 -87 -54 -46 -26 -83 -52 -83 -56 0 -5 -6
-9 -12 -9 -7 0 -47 -22 -88 -48 -41 -26 -101 -63 -134 -82 -61 -37 -86 -52
-180 -110 -32 -19 -69 -41 -84 -49 -15 -8 -45 -26 -67 -40 -66 -42 -133 -78
-275 -146 -74 -36 -148 -72 -163 -80 -16 -8 -34 -15 -40 -15 -7 0 -25 -7 -40
-15 -15 -8 -62 -24 -105 -35 -42 -12 -104 -30 -137 -40 -58 -18 -94 -28 -255
-66 -41 -9 -113 -21 -160 -25 -47 -5 -119 -13 -160 -18 -92 -12 -385 -13 -460
-1 -30 5 -100 14 -155 20 -55 6 -115 16 -133 22 -18 5 -56 13 -85 18 -29 4
-65 13 -82 18 -16 6 -73 23 -125 38 -52 15 -99 31 -105 35 -5 5 -17 9 -28 9
-10 0 -39 9 -65 19 -26 11 -78 32 -117 46 -182 70 -552 259 -655 334 -19 14
-42 31 -51 36 -47 29 -207 141 -229 161 -24 21 -173 142 -215 174 -42 32 -273
264 -331 333 -117 139 -212 275 -301 427 -84 144 -110 193 -137 260 -15 36
-37 85 -48 110 -85 183 -161 431 -218 710 -45 221 -51 261 -67 455 -16 177
-18 344 -18 1443 0 1343 -3 1272 50 1256 65 -19 172 -34 340 -48 219 -19 294
-20 414 -6 47 5 127 14 176 20 131 14 305 52 410 89 17 6 64 20 105 32 80 23
245 84 270 100 8 5 22 12 30 15 52 20 308 145 385 188 22 13 68 38 101 57 34
19 87 50 119 69 31 19 72 44 91 55 18 11 58 36 90 55 31 19 71 44 90 55 18 11
70 43 114 70 45 28 89 55 98 60 15 9 50 32 192 124 14 9 36 22 50 28 14 7 37
21 52 30 14 10 64 40 110 67 45 27 115 70 153 95 77 50 77 51 162 101 32 18
64 40 71 47 7 7 18 13 23 13 5 0 32 16 59 35 27 19 52 35 55 35 3 0 28 16 55
35 27 19 53 35 56 35 3 0 27 14 52 31 25 17 55 35 66 40 12 5 53 29 91 54 39
25 79 50 90 55 11 6 34 19 50 30 17 11 44 27 60 36 17 9 57 35 90 58 33 22 80
51 104 64 25 13 68 38 95 55 84 53 90 57 116 70 14 6 59 35 101 62 41 28 94
61 118 75 23 14 57 34 74 45 18 12 57 36 87 53 30 18 92 56 137 85 110 70 369
229 392 242 10 6 27 17 36 25 9 8 25 19 35 25 80 45 136 80 140 85 3 4 16 11
30 15 14 4 32 13 40 20 15 12 136 86 188 115 30 17 162 102 204 131 15 10 30
19 33 19 3 0 31 16 61 35 30 19 56 35 59 35 2 0 25 14 50 31 25 17 67 42 93
56 26 14 83 49 127 77 44 29 100 65 125 82 25 16 56 35 70 42 38 19 120 71
130 82 3 3 16 11 30 18 29 14 50 26 105 63 22 14 71 43 108 65 38 21 81 47 95
56 15 10 41 24 57 33 17 8 57 33 90 55 33 22 70 44 82 49 12 6 32 19 45 30 13
11 50 34 83 52 33 17 67 37 75 44 8 6 62 40 120 74 58 34 132 80 165 101 33
22 74 47 90 55 17 9 42 23 56 33 26 16 101 63 178 109 20 12 43 25 51 29 8 4
51 30 95 58 89 57 85 55 208 127 48 28 87 55 87 60 0 5 6 9 13 9 6 0 37 17 69
38 31 20 82 53 113 72 32 19 79 48 104 64 25 17 58 37 73 45 30 17 126 77 163
101 13 8 45 28 72 44 26 16 69 45 95 63 26 18 51 33 55 33 7 0 63 36 145 91
15 11 31 19 36 19 5 0 27 13 50 29 22 17 66 45 97 63 77 45 83 49 135 83 61
40 81 52 110 67 14 7 40 23 58 37 18 13 46 31 62 40 16 9 66 39 111 66 44 28
96 59 115 70 18 11 70 43 114 70 45 28 95 59 113 69 60 37 142 90 147 97 3 3
14 9 25 13 11 3 44 22 73 41 30 19 56 35 59 35 3 0 26 14 51 31 25 17 55 35
66 41 34 15 91 50 156 95 33 24 63 43 66 43 11 0 412 245 441 270 7 5 16 10
20 10 5 0 32 16 62 35 29 19 54 35 56 35 2 0 21 11 42 25 58 38 63 42 128 85
33 22 63 40 67 40 4 0 26 13 50 29 24 15 63 39 88 52 25 14 77 45 115 70 39
25 108 68 155 95 81 46 173 104 195 121 6 5 21 14 35 21 14 7 39 21 55 31 84
52 216 133 263 161 28 17 52 36 52 41 0 5 5 9 12 9 15 0 221 122 284 167 5 5
21 15 35 22 13 8 58 35 99 59 41 25 98 60 126 78 28 19 56 34 62 34 6 0 15 6
19 13 4 7 19 18 33 25 14 6 52 30 85 52 33 21 71 44 85 50 13 6 27 14 30 18 8
11 64 48 83 55 10 4 42 22 70 40 29 18 61 38 72 44 11 7 56 34 100 60 44 26
85 52 91 58 15 13 93 60 164 98 30 16 62 35 70 42 8 7 83 52 165 100 83 48
157 93 165 100 8 6 40 26 70 44 74 43 181 109 230 142 8 5 25 15 37 22 12 7
47 28 78 47 88 54 127 77 160 95 17 8 68 40 115 70 47 29 121 75 165 102 44
26 86 53 93 60 7 7 18 13 25 13 6 0 43 21 81 47 39 26 83 55 98 63 15 8 64 38
108 65 45 28 96 59 114 70 18 11 58 36 90 55 32 19 68 42 81 50 43 28 136 85
163 100 73 41 316 218 397 291 17 15 68 60 115 102 103 91 272 269 348 366
145 187 292 402 292 426 0 8 4 17 10 20 5 3 43 74 84 158 105 216 135 282 145
324 5 21 14 52 19 68 6 17 18 55 26 85 9 30 22 78 31 105 8 28 22 90 30 140 9
49 20 94 25 99 7 7 162 -75 310 -164 128 -77 221 -130 229 -130 4 0 15 -7 22
-16 7 -9 22 -20 34 -25 11 -5 38 -20 60 -34 22 -13 47 -27 55 -31 8 -4 38 -22
65 -39 28 -17 59 -36 70 -43 11 -7 34 -19 50 -28 17 -8 42 -22 57 -32 15 -9
66 -41 115 -70 123 -74 122 -73 180 -110 29 -18 75 -44 103 -59 27 -14 50 -30
50 -34 0 -5 6 -9 13 -9 7 0 39 -17 72 -39 86 -55 353 -211 361 -211 4 0 16 -7
26 -17 10 -9 27 -21 37 -27 11 -6 46 -27 77 -46 32 -19 72 -44 90 -55 18 -11
70 -42 114 -70 44 -27 96 -59 115 -70 39 -23 77 -49 225 -155 58 -41 116 -84
130 -96 14 -12 66 -55 115 -97 89 -74 236 -221 327 -327 26 -30 65 -75 87
-100 61 -68 218 -304 254 -382 12 -26 25 -48 29 -48 5 0 8 -5 8 -11 0 -6 16
-37 35 -69 19 -32 35 -64 35 -73 0 -8 7 -20 15 -27 8 -7 15 -22 15 -34 0 -12
7 -31 15 -42 8 -10 15 -26 15 -34 0 -8 9 -32 20 -53 11 -20 20 -45 20 -54 0
-10 7 -31 15 -47 8 -15 15 -39 15 -52 0 -13 7 -41 14 -61 8 -21 20 -57 26 -79
5 -23 17 -47 25 -54 13 -11 15 1023 15 9124 l0 9136 -16320 0 -16320 0 0
-16320z"/>
</g>
</svg>
